Coordinates
version=1
nRows=14
nColumns=36
inDegrees=yes

Units are S.I. units (second, meters, Newtons, ...)
If the header above contains a line with 'inDegrees', this indicates whether rotational values are in degrees (yes) or radians (no).

endheader
time	pelvis_tilt	pelvis_list	pelvis_rotation	pelvis_tx	pelvis_ty	pelvis_tz	hip_flexion_r	hip_adduction_r	hip_rotation_r	knee_angle_r	knee_angle_r_beta	ankle_angle_r	subtalar_angle_r	mtp_angle_r	hip_flexion_l	hip_adduction_l	hip_rotation_l	knee_angle_l	knee_angle_l_beta	ankle_angle_l	subtalar_angle_l	mtp_angle_l	lumbar_extension	lumbar_bending	lumbar_rotation	arm_flex_r	arm_add_r	arm_rot_r	elbow_flex_r	pro_sup_r	arm_flex_l	arm_add_l	arm_rot_l	elbow_flex_l	pro_sup_l
      8.90000000	     -0.08567146	      1.06886551	      2.35934977	     -0.04526805	      0.79534439	      0.09114804	      4.78234497	     -3.21878917	    -12.20257785	      0.75087364	      0.01310522	      0.85032675	     -2.95164061	     -7.49999987	      4.45919323	     -6.29420293	    -12.24243009	      0.74767619	      0.01304941	      0.50476843	      2.81732115	     -7.49999987	     -1.57761242	     -0.70872314	     -5.54716971	     80.95830950	     19.89902437	     66.17866729	    115.82262593	    104.20753560	     53.54672642	     18.39358099	     28.79802637	    129.83248624	     83.10044860
      8.91666670	     -0.00495202	      1.06044085	      2.47152318	     -0.04438785	      0.79538941	      0.09061400	      4.74698680	     -3.27679546	    -11.96377529	      0.95094483	      0.01659712	      0.64698560	     -3.45731022	     -7.49999987	      4.33352104	     -6.26859950	    -12.48401193	      0.78217026	      0.01365145	      0.56002593	      3.19046233	     -7.49999987	     -1.72537543	     -0.66898663	     -5.36865023	     80.64080081	     19.26237096	     66.05496968	    115.66971652	    104.22542195	     53.26003094	     18.55046224	     28.69284124	    129.15895139	     82.07071819
      8.93333330	      0.03231620	      1.01834686	      2.66266361	     -0.04290489	      0.79609437	      0.09007915	      4.79766138	     -3.32497137	    -12.08972200	      1.28684122	      0.02245962	      0.62077015	     -3.68685585	     -7.49999987	      4.27716972	     -6.26095304	    -12.19178752	      0.81287413	      0.01418733	      0.64576264	      3.10600050	     -7.49999987	     -1.93417471	     -0.55534136	     -5.52821342	     80.30328848	     18.84132939	     65.97680998	    115.39190587	    104.89556907	     53.20050976	     18.51740723	     28.87624919	    129.78286864	     82.30028723
      8.95000000	      0.05144752	      1.03367327	      2.72326305	     -0.04392098	      0.79960814	      0.09000587	      4.98880421	     -3.40137780	    -11.97843322	      1.68573516	      0.02942163	      0.48900648	     -4.09809312	     -7.49999987	      4.36155118	     -6.20447281	    -12.27357892	      0.89631948	      0.01564373	      0.60051042	      2.97468684	     -7.49999987	     -2.10741205	     -0.56574533	     -5.49040883	     79.87252872	     18.75042668	     66.51818812	    115.70891484	    104.66891978	     52.59301565	     18.45162474	     29.22724213	    130.20283217	     83.64351777
      8.96666670	      0.10699279	      1.08233088	      2.87384379	     -0.04406079	      0.79668489	      0.08963555	      5.25947944	     -3.55613845	    -12.13338130	      2.23429862	      0.03899587	      0.69010213	     -4.17903312	     -7.49999987	      4.47689652	     -6.11347926	    -12.03469867	      1.02693978	      0.01792348	      0.34303077	      2.34348319	     -7.49999987	     -2.34792917	     -0.56671473	     -5.47987198	     79.66802736	     18.43533703	     66.56050857	    115.71946647	    105.02771548	     52.24936487	     18.13663374	     28.79381115	    128.97621117	     83.24566953
      8.98333330	      0.13166920	      1.15521389	      2.86438169	     -0.04470612	      0.79385448	      0.08943741	      5.77702102	     -3.74771079	    -11.88908934	      3.09595491	      0.05403461	      0.93527299	     -4.70204218	     -7.49999987	      4.66554963	     -6.03916907	    -12.25165758	      1.29359816	      0.02257755	      0.39486492	      2.24903020	     -7.49999987	     -2.71087738	     -0.66315655	     -5.37926129	     79.89722687	     18.35382887	     66.54113448	    116.00218470	    105.34529945	     52.46025269	     18.09281750	     29.21892495	    128.85611040	     83.95808956
      9.00000000	      0.16077732	      1.14824899	      2.96198578	     -0.04744456	      0.79068149	      0.08805320	      6.62583291	     -3.97690804	    -11.78513579	      4.45407810	      0.07773833	      1.20397438	     -5.31457640	     -7.49999987	      4.93670713	     -6.01291284	    -12.25009423	      1.57845281	      0.02754920	      0.34879994	      1.80102521	     -7.49999987	     -3.23670496	     -0.56544962	     -5.38130312	     80.63256126	     18.21843439	     66.18323626	    115.71512863	    104.83624316	     53.19039089	     18.01600365	     29.20623715	    128.12739662	     85.60047600
      9.01666670	      0.08478085	      1.20720749	      3.12106332	     -0.04661445	      0.79204956	      0.08725655	      7.75797713	     -4.33245761	    -11.83561500	      6.22856253	      0.10870892	      1.64501821	     -5.88590454	     -7.49999987	      5.32490017	     -5.90626597	    -12.15777752	      1.98116404	      0.03457784	      0.27701008	      1.30896114	     -7.49999987	     -3.71130961	     -0.57153718	     -5.40704685	     81.06000278	     18.17808481	     66.37387292	    116.00397358	    105.12179813	     53.54237660	     18.22151913	     30.49861982	    128.88044023	     85.62941926
      9.03333330	      0.08542443	      1.23008662	      3.24805691	     -0.04537754	      0.79156271	      0.08672290	      8.82516097	     -4.68675633	    -11.85810526	      8.16292031	      0.14246984	      2.17084763	     -6.46580901	     -7.49999987	      5.62724515	     -5.85514815	    -12.11470022	      2.35813500	      0.04115722	      0.17934428	      0.66042877	     -7.49999987	     -4.44588950	     -0.50092113	     -5.50329477	     81.83621490	     18.52564651	     66.73212374	    116.12894597	    105.39196422	     54.31262489	     18.55866498	     32.75359737	    131.25999934	     85.62811288
      9.05000000	     -0.01904795	      1.26382184	      3.36302925	     -0.04311927	      0.79199330	      0.08688040	     10.06370015	     -5.05949426	    -11.73788744	     10.38568503	      0.18126440	      2.50694397	     -7.26132505	     -7.49999987	      5.92704027	     -5.86471527	    -12.37487701	      2.82405411	      0.04928904	      0.36312805	      0.71432701	     -7.49999987	     -4.98927268	     -0.44643864	     -5.53593455	     82.23599843	     18.77741974	     67.00850661	    115.78486914	    105.78931626	     54.94759288	     19.10791635	     34.97221450	    134.87069895	     87.19841563
      9.06666670	     -0.11047470	      1.30273763	      3.56805454	     -0.04613144	      0.78902610	      0.08666458	     11.57296853	     -5.48835851	    -11.67464770	     12.87805838	      0.22476452	      3.06373463	     -8.03612309	     -7.49999987	      6.39424969	     -5.87395990	    -12.48894146	      3.42859146	      0.05984021	      0.58653086	      0.49510212	     -7.49999987	     -5.61511955	     -0.42874228	     -5.51691186	     82.62701696	     18.72157012	     67.18916506	    115.43556836	    105.89957396	     55.60759678	     19.38739737	     35.92471508	    136.99458764	     88.24113034
      9.08333330	     -0.14998486	      1.43360498	      3.80001120	     -0.04666855	      0.79080456	      0.08612177	     13.10129146	     -6.01409718	    -11.43214080	     15.59058100	      0.27210697	      3.65809319	     -8.79691380	     -7.49999987	      6.77414655	     -5.82143410	    -12.54810929	      3.96602522	      0.06922020	      0.74268452	      0.57694628	     -7.49999987	     -6.22142777	     -0.64875311	     -5.95179722	     82.39623264	     18.67186609	     67.36211832	    115.11580754	    103.66374614	     55.37809953	     18.78559780	     35.26840230	    136.51844340	     86.53027940
      9.10000000	     -0.27211878	      1.52686448	      4.21970708	     -0.04864659	      0.78845768	      0.08590511	     14.87687566	     -6.56221536	    -11.34089606	     18.56542493	      0.32402779	      4.18978751	     -9.71576239	     -7.49999987	      7.55202275	     -5.82270174	    -12.71468107	      4.89474696	      0.08542945	      1.18678133	      0.71500731	     -7.49999987	     -6.81267416	     -0.63976653	     -6.59957618	     82.15726774	     18.82993644	     67.91101095	    114.74176740	    106.19182933	     55.23730668	     18.29537841	     35.18454134	    137.00337585	     87.21021626
      9.11666670	     -0.33747407	      1.69872225	      4.45135834	     -0.05114533	      0.78443598	      0.08500291	     16.77031195	     -7.20654009	    -11.07400656	     21.72095401	      0.37910216	      4.80726250	    -10.64273421	     -7.49999987	      8.23672179	     -5.78548142	    -12.89220057	      5.81621612	      0.10151212	      1.85340101	      0.86753848	     -7.49999987	     -7.61112411	     -0.87504928	     -7.16747952	     82.27990415	     18.83326475	     68.02883720	    115.45274574	    106.60325728	     55.72499937	     17.71323062	     36.36195298	    136.60306935	     87.37330387
